<?xml version="1.0" standalone="no"?>
<!DOCTYPE svg PUBLIC "-//W3C//DTD SVG 20010904//EN"
 "http://www.w3.org/TR/2001/REC-SVG-20010904/DTD/svg10.dtd">
<svg version="1.0" xmlns="http://www.w3.org/2000/svg"
 width="260.000000pt" height="280.000000pt" viewBox="0 0 260.000000 280.000000"
 preserveAspectRatio="xMidYMid meet">

<g transform="translate(0.000000,280.000000) scale(0.100000,-0.100000)"
fill="#000000" stroke="none">
<path d="M1110 2210 l0 -170 -335 0 -335 0 0 -667 c0 -368 0 -678 0 -690 0
-21 -5 -23 -62 -24 l-63 -1 54 -9 c63 -11 1471 -6 1581 5 93 10 102 16 23 16
-33 0 -80 3 -105 6 l-45 6 -7 432 c-8 469 -2 428 -63 474 l-23 17 20 83 20 84
-30 36 c-36 44 -37 56 -5 167 l26 88 -24 83 c-16 55 -41 110 -73 159 l-49 75
-252 0 -253 0 0 -170z m543 76 c36 -56 51 -94 64 -154 l17 -79 -28 -107 -28
-106 35 -40 34 -40 -18 -67 c-26 -94 -25 -104 21 -133 l40 -24 -2 -436 -3
-435 -62 -3 -63 -3 0 196 0 195 -195 0 -195 0 0 -195 0 -195 -47 0 c-27 0 -58
3 -70 6 l-23 6 0 844 0 844 238 0 239 0 46 -74z m-545 -942 l2 -671 -37 -7
c-21 -3 -164 -6 -319 -6 l-281 0 -6 227 c-4 124 -7 430 -7 680 l0 453 323 -2
322 -3 3 -671z m530 -502 l2 -182 -172 2 -173 3 -3 183 -2 182 172 -2 173 -3
3 -183z"/>
<path d="M1272 2058 l3 -153 65 0 65 0 3 153 3 152 -71 0 -71 0 3 -152z m118
2 l0 -130 -50 0 -50 0 0 130 0 130 50 0 50 0 0 -130z"/>
<path d="M1514 2197 c-2 -7 -3 -74 -2 -148 l3 -134 70 0 70 0 3 148 3 147 -71
0 c-49 0 -72 -4 -76 -13z m120 -29 c3 -13 6 -72 6 -131 l0 -108 -47 3 -48 3
-3 128 -3 127 45 0 c37 0 45 -3 50 -22z"/>
<path d="M1516 1794 c-8 -21 -8 -238 0 -258 5 -12 21 -16 75 -16 l69 0 0 140
0 140 -32 1 c-18 0 -49 2 -70 4 -26 3 -38 0 -42 -11z m119 -134 l0 -115 -47
-3 -48 -3 0 121 0 121 48 -3 47 -3 0 -115z"/>
<path d="M1270 1660 l0 -140 70 0 70 0 0 140 0 140 -70 0 -70 0 0 -140z m120
6 c0 -72 -4 -116 -11 -118 -5 -2 -28 -2 -50 0 l-39 4 0 114 0 114 50 0 50 0 0
-114z"/>
<path d="M1272 1288 l3 -143 65 0 64 0 8 37 c4 21 4 84 0 140 l-7 103 -68 3
-68 3 3 -143z m118 -8 c0 -89 -3 -120 -12 -120 -7 0 -30 3 -50 6 l-38 7 0 107
c0 118 -1 115 62 119 l38 2 0 -121z"/>
<path d="M1512 1288 l3 -133 40 -5 c22 -3 55 -3 73 -1 l32 3 0 118 c0 65 -3
125 -6 134 -5 12 -21 16 -75 16 l-70 0 3 -132z m126 -5 l3 -113 -56 0 -55 0 0
116 0 115 53 -3 52 -3 3 -112z"/>
<path d="M550 1810 c0 -106 -4 -102 109 -104 l76 -1 3 98 3 97 -96 0 -95 0 0
-90z m160 -5 l0 -75 -65 0 -65 0 0 75 0 75 65 0 65 0 0 -75z"/>
<path d="M840 1805 l0 -95 90 0 c53 0 90 4 91 10 1 6 1 19 1 30 0 11 0 49 -1
85 l-1 65 -90 0 -90 0 0 -95z m160 -5 l0 -70 -70 0 -70 0 0 70 0 70 70 0 70 0
0 -70z"/>
<path d="M554 1617 c-3 -8 -4 -49 -2 -93 l3 -79 90 0 90 0 0 90 0 90 -88 3
c-67 2 -89 0 -93 -11z m154 -84 l3 -73 -65 0 c-35 0 -66 4 -68 10 -1 5 -1 39
0 75 l4 66 61 -3 62 -3 3 -72z"/>
<path d="M840 1535 l0 -95 90 0 90 0 0 95 0 95 -90 0 -90 0 0 -95z m158 -2 l3
-73 -71 0 -70 0 0 75 0 76 68 -3 67 -3 3 -72z"/>
<path d="M556 1345 c-9 -24 -7 -158 3 -173 5 -9 31 -12 92 -10 l84 3 0 95 0
95 -86 3 c-72 2 -88 0 -93 -13z m156 -17 c3 -7 4 -42 4 -78 l-1 -65 -70 0 -70
0 -3 78 -3 77 70 0 c46 0 70 -4 73 -12z"/>
<path d="M840 1266 l0 -93 81 -7 c44 -4 84 -4 90 -1 5 4 9 49 9 101 l0 94 -90
0 -90 0 0 -94z m160 -1 l0 -75 -70 0 -70 0 0 75 0 75 70 0 70 0 0 -75z"/>
<path d="M554 1077 c-3 -8 -4 -49 -2 -93 l3 -79 93 -3 92 -3 0 96 0 95 -90 0
c-67 0 -92 -4 -96 -13z m166 -82 l0 -76 -72 3 -73 3 -3 59 c-4 85 -4 86 78 86
l70 0 0 -75z"/>
<path d="M840 995 l0 -96 91 3 92 3 4 59 c3 33 2 74 -2 93 l-6 33 -89 0 -90 0
0 -95z m160 0 l0 -76 -70 3 -70 3 0 73 0 72 70 0 70 0 0 -75z"/>
<path d="M2102 2252 c-23 -53 -56 -119 -73 -145 -26 -41 -33 -47 -52 -40 -70
25 -153 -15 -188 -91 -25 -56 -24 -101 6 -152 25 -43 90 -84 133 -84 72 0 143
68 157 150 7 42 -13 101 -47 137 l-20 22 20 28 c52 74 129 250 114 265 -4 4
-27 -36 -50 -90z m-181 -264 c-9 -25 -41 -37 -41 -16 0 17 20 38 37 38 9 0 10
-7 4 -22z"/>
<path d="M1989 1590 c-30 -16 -38 -27 -52 -79 -9 -33 -17 -67 -17 -74 0 -13
120 -137 133 -137 4 0 7 32 7 70 0 57 -4 77 -21 100 -20 26 -21 33 -10 76 7
26 8 50 4 55 -4 4 -24 -1 -44 -11z m17 -55 c-6 -37 -3 -51 13 -74 14 -20 21
-45 21 -77 l0 -49 -51 51 -51 51 17 59 c14 50 36 84 53 84 2 0 1 -20 -2 -45z"/>
<path d="M1890 1245 c-13 -24 -22 -46 -20 -48 20 -14 61 -37 68 -37 4 0 16 19
27 42 l18 41 -27 24 c-15 13 -30 23 -34 23 -4 0 -18 -20 -32 -45z m58 -6 c4
-22 -21 -50 -36 -40 -10 6 -11 13 -1 35 13 27 32 30 37 5z"/>
<path d="M1923 1094 c-8 -4 -9 -14 -3 -32 5 -15 11 -40 15 -56 l6 -29 29 34
c27 33 27 35 12 62 -15 26 -32 32 -59 21z m50 -38 c3 -8 0 -19 -7 -26 -10 -8
-15 -7 -20 6 -3 8 -6 20 -6 25 0 15 27 10 33 -5z"/>
<path d="M1891 929 l-22 -21 22 -24 c23 -24 23 -24 43 -5 18 18 18 23 6 46
-16 30 -20 31 -49 4z m29 -25 c0 -8 -4 -12 -10 -9 -5 3 -10 10 -10 16 0 5 5 9
10 9 6 0 10 -7 10 -16z"/>
</g>
</svg>
