<?xml version="1.0" encoding="iso-8859-1"?>
<!-- Uploaded to: SVG Repo, www.svgrepo.com, Generator: SVG Repo Mixer Tools -->
<!DOCTYPE svg PUBLIC "-//W3C//DTD SVG 1.1//EN" "http://www.w3.org/Graphics/SVG/1.1/DTD/svg11.dtd">
<svg fill="#000000" height="800px" width="800px" version="1.1" id="Capa_1" xmlns="http://www.w3.org/2000/svg" xmlns:xlink="http://www.w3.org/1999/xlink" 
	 viewBox="0 0 511 511" xml:space="preserve">
<g>
	<path d="M127,291.5c0-4.142-3.358-7.5-7.5-7.5h-88c-4.142,0-7.5,3.358-7.5,7.5s3.358,7.5,7.5,7.5h88
		C123.642,299,127,295.642,127,291.5z"/>
	<path d="M47.5,380c-1.98,0-3.91,0.8-5.3,2.2c-1.4,1.39-2.2,3.33-2.2,5.3c0,1.97,0.8,3.91,2.2,5.3c1.39,1.4,3.32,2.2,5.3,2.2
		c1.97,0,3.91-0.8,5.3-2.2c1.4-1.39,2.2-3.33,2.2-5.3c0-1.97-0.8-3.91-2.2-5.3C51.41,380.8,49.47,380,47.5,380z"/>
	<path d="M263.5,395c1.97,0,3.91-0.8,5.3-2.2c1.4-1.39,2.2-3.33,2.2-5.3c0-1.97-0.8-3.91-2.2-5.3c-1.39-1.4-3.32-2.2-5.3-2.2
		s-3.91,0.8-5.3,2.2c-1.4,1.39-2.2,3.33-2.2,5.3c0,1.97,0.8,3.91,2.2,5.3C259.59,394.2,261.53,395,263.5,395z"/>
	<path d="M72,387.5c0,4.142,3.358,7.5,7.5,7.5h152c4.142,0,7.5-3.358,7.5-7.5s-3.358-7.5-7.5-7.5h-152
		C75.358,380,72,383.358,72,387.5z"/>
	<path d="M479.5,92c-3.962,0-7.752,0.742-11.247,2.083L235.01,160.429c-2.318,0.659-4.549,1.539-6.683,2.595
		c-0.128,0.06-0.255,0.121-0.379,0.188c-7.485,3.806-13.657,9.937-17.462,17.546L186.865,228H151.5c-8.547,0-15.5,6.953-15.5,15.5
		V260h-17v-21.187c0-4.14-1.612-8.032-4.54-10.96l-5.657-5.657c-2.929-2.929-7.678-2.929-10.606,0
		c-2.929,2.929-2.929,7.678,0,10.606l5.657,5.657c0.094,0.095,0.146,0.22,0.146,0.354V260H15.5C6.953,260,0,266.953,0,275.5v48
		c0,8.547,6.953,15.5,15.5,15.5H112v17H47.5C30.131,356,16,370.131,16,387.5S30.131,419,47.5,419h216
		c17.369,0,31.5-14.131,31.5-31.5S280.869,356,263.5,356H199v-17h40.5c4.142,0,7.5-3.358,7.5-7.5v-46.64l18.162-48.432
		c2.608-6.955,8.146-12.291,15.192-14.64l172.309-57.437l18.97,164.409L420.394,380H407.5c-4.142,0-7.5,3.358-7.5,7.5
		s3.358,7.5,7.5,7.5h80c12.958,0,23.5-10.542,23.5-23.5v-64v-184C511,106.131,496.869,92,479.5,92z M496,123.5
		c0,9.098-7.402,16.5-16.5,16.5c-7.715,0-14.191-5.33-15.988-12.495l-0.497-4.305c0.122-6.739,4.294-12.501,10.189-14.945
		c0.198-0.065,0.393-0.134,0.581-0.213c1.784-0.662,3.704-1.042,5.715-1.042C488.598,107,496,114.402,496,123.5z M448.001,123.554
		c0,0.034,0.002,0.068,0.003,0.102c0.003,0.506,0.015,1.01,0.041,1.51l-85.88,14.688l86.977-24.74
		c-0.739,2.672-1.142,5.482-1.142,8.386C448,123.518,448.001,123.536,448.001,123.554z M232,296.677l-33.103-12.413
		c-9.509-3.566-15.897-12.785-15.897-22.94V243h8.468c0.009,0,0.017,0.001,0.026,0.001c0.007,0,0.014-0.001,0.021-0.001h14.686
		c7.113,0,13.404,4.534,15.653,11.282L232,284.717V296.677z M15,323.5v-48c0-0.276,0.224-0.5,0.5-0.5H136v49H15.5
		C15.224,324,15,323.776,15,323.5z M280,387.5c0,9.098-7.402,16.5-16.5,16.5h-216c-9.098,0-16.5-7.402-16.5-16.5
		S38.402,371,47.5,371h216C272.598,371,280,378.402,280,387.5z M184,356h-57v-17h16.5H184V356z M151,324v-80.5
		c0-0.276,0.224-0.5,0.5-0.5H168v18.324c0,16.373,10.3,31.236,25.631,36.985L232,312.698V324H151z M275.611,207.557
		c-11.361,3.788-20.289,12.391-24.494,23.604l-11.201,29.87l-3.831-11.492C231.791,236.656,219.782,228,206.202,228h-2.566
		l20.268-40.535c2.224-4.449,5.755-8.082,10.041-10.462l215.918-36.93l1.044,9.052L275.611,207.557z M466.351,152.114
		c4.005,1.848,8.456,2.886,13.149,2.886c6.046,0,11.698-1.716,16.5-4.681v154.075l-10.828,10.828L466.351,152.114z M496,371.5
		c0,4.687-3.813,8.5-8.5,8.5h-45.894L496,325.606V371.5z"/>
</g>
</svg>